<svg width="280" height="180" viewBox="0 0 280 180" fill="none" xmlns="http://www.w3.org/2000/svg">
<g opacity="0.4">
<mask id="mask0" mask-type="alpha" maskUnits="userSpaceOnUse" x="12" y="10" width="256" height="166">
<rect x="12.4445" y="10.3447" width="255.111" height="165.517" rx="8" fill="#EFF4F8"/>
</mask>
<g mask="url(#mask0)">
<rect x="12.4445" y="10.3447" width="255.111" height="165.517" fill="#EAEDF0"/>
</g>
</g>
<g opacity="0.5">
<mask id="mask1" mask-type="alpha" maskUnits="userSpaceOnUse" x="6" y="5" width="268" height="166">
<rect x="6.22217" y="5.17236" width="267.556" height="165.517" rx="8" fill="#EFF4F8"/>
</mask>
<g mask="url(#mask1)">
<rect x="6.22217" y="5.17236" width="267.556" height="165.517" fill="#EAEDF0"/>
</g>
</g>
<mask id="mask2" mask-type="alpha" maskUnits="userSpaceOnUse" x="0" y="0" width="280" height="166">
<rect width="280" height="165.517" rx="8" fill="url(#paint0_linear)"/>
</mask>
<g mask="url(#mask2)">
<rect width="280" height="165.517" fill="#EFF4F8"/>
</g>
<path opacity="0.02" d="M43.0713 148.465L52.9834 112.234H66.3818L49.6338 162H36.5088L19.8975 112.234H33.1934L43.0713 148.465ZM82.8223 162H70.8594V112.234H82.8223V162ZM116.831 148.772C116.831 147.018 116.204 145.651 114.951 144.671C113.721 143.691 111.545 142.677 108.423 141.629C105.301 140.581 102.749 139.567 100.767 138.587C94.318 135.42 91.0938 131.067 91.0938 125.53C91.0938 122.773 91.8913 120.346 93.4863 118.25C95.1042 116.131 97.3828 114.49 100.322 113.328C103.262 112.143 106.566 111.551 110.234 111.551C113.812 111.551 117.013 112.189 119.839 113.465C122.687 114.741 124.897 116.564 126.47 118.934C128.042 121.281 128.828 123.969 128.828 127H116.865C116.865 124.972 116.239 123.4 114.985 122.283C113.755 121.167 112.08 120.608 109.961 120.608C107.819 120.608 106.121 121.087 104.868 122.044C103.638 122.978 103.022 124.174 103.022 125.633C103.022 126.909 103.706 128.071 105.073 129.119C106.44 130.145 108.844 131.215 112.285 132.332C115.726 133.426 118.551 134.611 120.762 135.887C126.139 138.986 128.828 143.258 128.828 148.704C128.828 153.056 127.188 156.474 123.906 158.958C120.625 161.442 116.125 162.684 110.405 162.684C106.372 162.684 102.715 161.966 99.4336 160.53C96.1751 159.072 93.7142 157.09 92.0508 154.583C90.4102 152.054 89.5898 149.148 89.5898 145.867H101.621C101.621 148.533 102.305 150.504 103.672 151.78C105.062 153.034 107.306 153.66 110.405 153.66C112.388 153.66 113.949 153.239 115.088 152.396C116.25 151.53 116.831 150.322 116.831 148.772ZM163.247 152.703H146.807L143.936 162H131.118L149.37 112.234H160.649L179.038 162H166.152L163.247 152.703ZM149.678 143.44H160.376L155.01 126.18L149.678 143.44Z" fill="white"/>
<path d="M244.116 31.4999C244.116 37.8525 238.942 42.9999 232.558 42.9999C226.174 42.9999 221 37.8514 221 31.4999C221 25.1485 226.175 20 232.558 20C238.941 20 244.116 25.1485 244.116 31.4999Z" fill="#FF3D57"/>
<path d="M246.439 20C243.847 20 241.46 20.8591 239.532 22.2932L239.541 22.2943C239.92 22.6588 240.339 22.9153 240.661 23.335L238.257 23.3729C237.88 23.7513 237.536 24.163 237.213 24.5908H241.453C241.776 24.976 242.074 25.3108 242.345 25.7362H236.444C236.228 26.1065 236.028 26.4872 235.853 26.8827H243.017C243.204 27.2771 243.372 27.5751 243.514 27.9925H235.429C235.301 28.3893 235.191 28.7952 235.107 29.2092H243.852C243.938 29.6071 244.004 29.975 244.049 30.35H234.934C234.896 30.7284 234.876 31.1125 234.876 31.5001H244.115C244.115 31.9072 244.086 32.2843 244.044 32.6501H234.934C234.973 33.04 235.031 33.4229 235.107 33.8002H243.839C243.748 34.1727 243.644 34.5476 243.514 34.9363H235.402C235.525 35.3296 235.674 35.7114 235.837 36.084H243.017C242.818 36.5026 242.592 36.8372 242.344 37.2293H236.423C236.657 37.6318 236.915 38.0159 237.194 38.3839L241.454 38.4471C241.09 38.8806 240.625 39.1417 240.2 39.5212C240.223 39.5396 239.522 39.519 238.14 39.4971C240.242 41.6546 243.18 43 246.439 43C252.824 43 258 37.8514 258 31.5001C258 25.1487 252.825 20 246.439 20Z" fill="#FDBF5E"/>
<path d="M23.8401 20.386H28.122H39.5083H51.2211H54.8693C56.7781 20.386 58.3255 21.9418 58.3255 23.8609V26.0424V35.0192V44.2566V46.1389C58.3255 48.058 56.7781 49.6138 54.8693 49.6138H51.2211H39.6235H28.122H23.8401C21.9313 49.6138 20.3839 48.058 20.3839 46.1389V44.2566V35.0433V25.83V23.8609C20.3839 21.9418 21.9313 20.386 23.8401 20.386Z" fill="#FDBF5E"/>
<path fill-rule="evenodd" clip-rule="evenodd" d="M20 23.861C20 21.7286 21.7193 20 23.8402 20H54.8694C56.9903 20 58.7097 21.7286 58.7097 23.861V46.139C58.7097 48.2714 56.9903 50 54.8694 50H23.8402C21.7193 50 20 48.2714 20 46.139V23.861ZM23.8402 20.7722C22.1435 20.7722 20.768 22.1551 20.768 23.861V25.444H22.4578V24.4402C22.4578 23.374 23.3174 22.5097 24.3779 22.5097H27.7381V20.7722H23.8402ZM28.5061 20.7722V22.5097H39.1244V20.7722H28.5061ZM39.8925 20.7722V22.5097H50.8372V20.7722H39.8925ZM51.6052 20.7722V22.5097H54.3702C55.4307 22.5097 56.2903 23.374 56.2903 24.4402V25.6564H57.9416V23.861C57.9416 22.1551 56.5662 20.7722 54.8694 20.7722H51.6052ZM57.9416 26.4286H56.2903V34.6332H57.9416V26.4286ZM57.9416 35.4054H56.2903V43.8707H57.9416V35.4054ZM57.9416 44.6429H56.2903V45.7915C56.2903 46.8577 55.4307 47.722 54.3702 47.722H51.5876C51.5991 47.7586 51.6052 47.7975 51.6052 47.8378V49.2278H54.8694C56.5662 49.2278 57.9416 47.8449 57.9416 46.139V44.6429ZM50.8372 49.2278V47.8378C50.8372 47.7975 50.8433 47.7586 50.8548 47.722H40.0077V49.2278H50.8372ZM39.2396 49.2278V47.722H28.5061V49.2278H39.2396ZM27.7381 49.2278V47.722H24.3779C23.3174 47.722 22.4578 46.8577 22.4578 45.7915V44.6429H20.768V46.139C20.768 47.8449 22.1435 49.2278 23.8402 49.2278H27.7381ZM20.768 43.8707H22.4578V35.4295H20.768V43.8707ZM20.768 34.6573H22.4578V26.2162H20.768V34.6573ZM23.2258 35.4054V40.7915H33.0184V35.4054H23.2258ZM33.0184 34.6332H23.2258V29.1506H33.0184V34.6332ZM33.0184 28.3784V23.2819H24.3779C23.7416 23.2819 23.2258 23.8004 23.2258 24.4402V28.3784H33.0184ZM33.7865 23.2819V46.9498H45.4608V30.7336C45.4608 29.6674 46.3205 28.8031 47.381 28.8031H55.5223V24.4402C55.5223 23.8004 55.0065 23.2819 54.3702 23.2819H33.7865ZM55.5223 29.5753H47.381C46.7447 29.5753 46.2289 30.0939 46.2289 30.7336V34.6332H55.5223V29.5753ZM55.5223 35.4054H46.2289V40.7915H55.5223V35.4054ZM55.5223 41.5637H46.2289V46.9498H54.3702C55.0065 46.9498 55.5223 46.4312 55.5223 45.7915V41.5637ZM33.0184 46.9498V41.5637H23.2258V45.7915C23.2258 46.4312 23.7416 46.9498 24.3779 46.9498H33.0184Z" fill="#15232E"/>
<defs>
<linearGradient id="paint0_linear" x1="5.18518" y1="4.27142" x2="276.681" y2="158.585" gradientUnits="userSpaceOnUse">
<stop stop-color="#FF3D57"/>
<stop offset="1" stop-color="#FF8A48"/>
</linearGradient>
</defs>
</svg>
