<svg width="280" height="180" viewBox="0 0 280 180" fill="none" xmlns="http://www.w3.org/2000/svg">
<g opacity="0.4">
<mask id="mask0" mask-type="alpha" maskUnits="userSpaceOnUse" x="12" y="10" width="256" height="166">
<rect x="12.4445" y="10.3447" width="255.111" height="165.517" rx="8" fill="#1F2935"/>
</mask>
<g mask="url(#mask0)">
<rect x="12.4445" y="10.3447" width="255.111" height="165.517" fill="#333E4C"/>
</g>
</g>
<g opacity="0.5">
<mask id="mask1" mask-type="alpha" maskUnits="userSpaceOnUse" x="6" y="5" width="268" height="166">
<rect x="6.22217" y="5.17236" width="267.556" height="165.517" rx="8" fill="#1F2935"/>
</mask>
<g mask="url(#mask1)">
<rect x="6.22217" y="5.17236" width="267.556" height="165.517" fill="#333E4C"/>
</g>
</g>
<mask id="mask2" mask-type="alpha" maskUnits="userSpaceOnUse" x="0" y="0" width="280" height="166">
<rect width="280" height="165.517" rx="8" fill="url(#paint0_linear)"/>
</mask>
<g mask="url(#mask2)">
<rect width="280" height="165.517" fill="#333E4C"/>
</g>
<path opacity="0.02" d="M43.0713 148.465L52.9834 112.234H66.3818L49.6338 162H36.5088L19.8975 112.234H33.1934L43.0713 148.465ZM82.8223 162H70.8594V112.234H82.8223V162ZM116.831 148.772C116.831 147.018 116.204 145.651 114.951 144.671C113.721 143.691 111.545 142.677 108.423 141.629C105.301 140.581 102.749 139.567 100.767 138.587C94.318 135.42 91.0938 131.067 91.0938 125.53C91.0938 122.773 91.8913 120.346 93.4863 118.25C95.1042 116.131 97.3828 114.49 100.322 113.328C103.262 112.143 106.566 111.551 110.234 111.551C113.812 111.551 117.013 112.189 119.839 113.465C122.687 114.741 124.897 116.564 126.47 118.934C128.042 121.281 128.828 123.969 128.828 127H116.865C116.865 124.972 116.239 123.4 114.985 122.283C113.755 121.167 112.08 120.608 109.961 120.608C107.819 120.608 106.121 121.087 104.868 122.044C103.638 122.978 103.022 124.174 103.022 125.633C103.022 126.909 103.706 128.071 105.073 129.119C106.44 130.145 108.844 131.215 112.285 132.332C115.726 133.426 118.551 134.611 120.762 135.887C126.139 138.986 128.828 143.258 128.828 148.704C128.828 153.056 127.188 156.474 123.906 158.958C120.625 161.442 116.125 162.684 110.405 162.684C106.372 162.684 102.715 161.966 99.4336 160.53C96.1751 159.072 93.7142 157.09 92.0508 154.583C90.4102 152.054 89.5898 149.148 89.5898 145.867H101.621C101.621 148.533 102.305 150.504 103.672 151.78C105.062 153.034 107.306 153.66 110.405 153.66C112.388 153.66 113.949 153.239 115.088 152.396C116.25 151.53 116.831 150.322 116.831 148.772ZM163.247 152.703H146.807L143.936 162H131.118L149.37 112.234H160.649L179.038 162H166.152L163.247 152.703ZM149.678 143.44H160.376L155.01 126.18L149.678 143.44Z" fill="white"/>
<path d="M228.347 20L225.849 35.9679H229.842L232.338 20H228.347ZM240.392 26.5044C238.996 25.7967 238.141 25.319 238.141 24.5951C238.158 23.9369 238.864 23.2626 240.441 23.2626C241.739 23.2291 242.692 23.5422 243.416 23.8538L243.778 24.0199L244.321 20.679C243.532 20.3659 242.282 20.0209 240.737 20.0209C236.794 20.0209 234.017 22.1267 234 25.1385C233.967 27.361 235.988 28.5943 237.5 29.3342C239.044 30.0931 239.57 30.5852 239.57 31.2595C239.553 32.2948 238.321 32.7725 237.172 32.7725C235.579 32.7725 234.723 32.5265 233.424 31.9496L232.899 31.7035L232.34 35.1755C233.278 35.6038 235.003 35.9807 236.794 36C240.984 36 243.711 33.9261 243.746 30.7163C243.759 28.9555 242.694 27.6069 240.392 26.5044ZM254.558 20.0494H251.469C250.517 20.0494 249.793 20.3307 249.381 21.3341L243.45 35.9679H247.64L248.794 32.7996H253.483L254.082 35.9807H257.778L254.558 20.0494ZM249.957 29.6023C250.037 29.6103 251.565 24.4303 251.565 24.4303L252.782 29.6023C252.782 29.6023 250.745 29.6023 249.957 29.6023ZM222.512 20L218.6 30.8487L218.174 28.7093C217.45 26.2407 215.182 23.5582 212.651 22.2257L216.234 35.952H220.459L226.737 20.0018H222.512V20Z" fill="#56CCF2"/>
<path d="M216.857 22.0609C216.552 20.8433 215.58 20.0222 214.26 20.0046H208.064L208 20.3001C212.833 21.5239 216.89 25.2898 218.206 28.832L216.857 22.0609Z" fill="#EFC75E"/>
<path d="M23.8401 20.386H28.122H39.5083H51.2211H54.8693C56.7781 20.386 58.3255 21.9418 58.3255 23.8609V26.0424V35.0192V44.2566V46.1389C58.3255 48.058 56.7781 49.6138 54.8693 49.6138H51.2211H39.6235H28.122H23.8401C21.9313 49.6138 20.3839 48.058 20.3839 46.1389V44.2566V35.0433V25.83V23.8609C20.3839 21.9418 21.9313 20.386 23.8401 20.386Z" fill="#FDBF5E"/>
<path fill-rule="evenodd" clip-rule="evenodd" d="M20 23.861C20 21.7286 21.7193 20 23.8402 20H54.8694C56.9903 20 58.7097 21.7286 58.7097 23.861V46.139C58.7097 48.2714 56.9903 50 54.8694 50H23.8402C21.7193 50 20 48.2714 20 46.139V23.861ZM23.8402 20.7722C22.1435 20.7722 20.768 22.1551 20.768 23.861V25.444H22.4578V24.4402C22.4578 23.374 23.3174 22.5097 24.3779 22.5097H27.7381V20.7722H23.8402ZM28.5061 20.7722V22.5097H39.1244V20.7722H28.5061ZM39.8925 20.7722V22.5097H50.8372V20.7722H39.8925ZM51.6052 20.7722V22.5097H54.3702C55.4307 22.5097 56.2903 23.374 56.2903 24.4402V25.6564H57.9416V23.861C57.9416 22.1551 56.5662 20.7722 54.8694 20.7722H51.6052ZM57.9416 26.4286H56.2903V34.6332H57.9416V26.4286ZM57.9416 35.4054H56.2903V43.8707H57.9416V35.4054ZM57.9416 44.6429H56.2903V45.7915C56.2903 46.8577 55.4307 47.722 54.3702 47.722H51.5876C51.5991 47.7586 51.6052 47.7975 51.6052 47.8378V49.2278H54.8694C56.5662 49.2278 57.9416 47.8449 57.9416 46.139V44.6429ZM50.8372 49.2278V47.8378C50.8372 47.7975 50.8433 47.7586 50.8548 47.722H40.0077V49.2278H50.8372ZM39.2396 49.2278V47.722H28.5061V49.2278H39.2396ZM27.7381 49.2278V47.722H24.3779C23.3174 47.722 22.4578 46.8577 22.4578 45.7915V44.6429H20.768V46.139C20.768 47.8449 22.1435 49.2278 23.8402 49.2278H27.7381ZM20.768 43.8707H22.4578V35.4295H20.768V43.8707ZM20.768 34.6573H22.4578V26.2162H20.768V34.6573ZM23.2258 35.4054V40.7915H33.0184V35.4054H23.2258ZM33.0184 34.6332H23.2258V29.1506H33.0184V34.6332ZM33.0184 28.3784V23.2819H24.3779C23.7416 23.2819 23.2258 23.8004 23.2258 24.4402V28.3784H33.0184ZM33.7865 23.2819V46.9498H45.4608V30.7336C45.4608 29.6674 46.3205 28.8031 47.381 28.8031H55.5223V24.4402C55.5223 23.8004 55.0065 23.2819 54.3702 23.2819H33.7865ZM55.5223 29.5753H47.381C46.7447 29.5753 46.2289 30.0939 46.2289 30.7336V34.6332H55.5223V29.5753ZM55.5223 35.4054H46.2289V40.7915H55.5223V35.4054ZM55.5223 41.5637H46.2289V46.9498H54.3702C55.0065 46.9498 55.5223 46.4312 55.5223 45.7915V41.5637ZM33.0184 46.9498V41.5637H23.2258V45.7915C23.2258 46.4312 23.7416 46.9498 24.3779 46.9498H33.0184Z" fill="#15232E"/>
<defs>
<linearGradient id="paint0_linear" x1="5.18518" y1="4.27142" x2="276.681" y2="158.585" gradientUnits="userSpaceOnUse">
<stop stop-color="#FF3D57"/>
<stop offset="1" stop-color="#FF8A48"/>
</linearGradient>
</defs>
</svg>
